<?xml version="1.0" encoding="utf-8"?>
<!-- Generator: Adobe Illustrator 16.0.0, SVG Export Plug-In . SVG Version: 6.00 Build 0)  -->
<!DOCTYPE svg PUBLIC "-//W3C//DTD SVG 1.1//EN" "http://www.w3.org/Graphics/SVG/1.1/DTD/svg11.dtd">
<svg version="1.1" id="Layer_1" xmlns="http://www.w3.org/2000/svg" xmlns:xlink="http://www.w3.org/1999/xlink" x="0px" y="0px"
	 width="70px" height="70px" viewBox="0 0 70 70" enable-background="new 0 0 70 70" xml:space="preserve">
<g>
	<defs>
		<filter id="Adobe_OpacityMaskFilter" filterUnits="userSpaceOnUse" x="0" y="0" width="70" height="70">
			<feColorMatrix  type="matrix" values="1 0 0 0 0  0 1 0 0 0  0 0 1 0 0  0 0 0 1 0"/>
		</filter>
	</defs>
	<mask maskUnits="userSpaceOnUse" x="0" y="0" width="70" height="70" id="icon-b">
		<g filter="url(#Adobe_OpacityMaskFilter)">
			<path id="icon-a" fill="#FFFFFF" d="M4,0h61c4,0,5,1,5,5v60c0,4-1,5-5,5H4c-3,0-4-1-4-5V5C0,1,1,0,4,0z"/>
		</g>
	</mask>
	<g mask="url(#icon-b)">
		<path fill="#9B108E" d="M0,0h70v70H0V0z"/>
		<path fill="#FFFFFF" fill-opacity="0.383" d="M4,1h61c2.667,0,4.333,0.667,5,2V0H0v3C0.667,1.667,2,1,4,1z"/>
		<path opacity="0.165" enable-background="new    " d="M26.375,11.5l9.25,1.125L54,18.25l4,6.11v19.558L33.423,69H4.006
			C2.003,69,0,68.854,0,64.911V38.064l12.348-14L26.375,11.5z"/>
		<path fill-opacity="0.383" d="M4,69h61c2.667,0,4.333-1,5-3v4H0v-4C0.667,68,2,69,4,69z"/>
		<g display="none">
			<g id="Layer_1_1_" display="inline">
				<path fill="#FFFFFF" d="M35,8.281C20.246,8.281,8.281,20.246,8.281,35S20.246,61.719,35,61.719S61.719,49.754,61.719,35
					S49.754,8.281,35,8.281z M35,19.297c4.301,0,7.793,3.492,7.793,7.793c0,4.301-3.492,7.793-7.793,7.793s-7.793-3.492-7.793-7.793
					C27.207,22.789,30.699,19.297,35,19.297z M47.598,46.156c0,2.496-2.039,4.535-4.535,4.535H26.938
					c-2.496,0-4.535-2.039-4.535-4.535v-9.609c0-2.496,2.039-4.535,4.535-4.535h0.375c1.582,2.578,4.43,4.3,7.676,4.3
					s6.094-1.729,7.676-4.3h0.375c2.496,0,4.535,2.039,4.535,4.535v9.609H47.598z"/>
			</g>
			<g id="Layer_2" display="inline">
				<g>
					<path fill="#FFFFFF" d="M47.984,8.398H15.289c-3.223,0-5.859,2.637-5.859,5.859v41.484c0,3.223,2.637,5.858,5.859,5.858h32.695
						c3.223,0,5.854-2.646,5.854-5.858V14.258C53.844,11.035,51.207,8.398,47.984,8.398z M31.637,19.297
						c4.3,0,7.792,3.492,7.792,7.793c0,4.301-3.492,7.793-7.792,7.793c-4.301,0-7.793-3.492-7.793-7.793
						C23.844,22.789,27.324,19.297,31.637,19.297z M44.234,46.156c0,2.496-2.039,4.535-4.535,4.535H23.574
						c-2.496,0-4.535-2.039-4.535-4.535v-9.609c0-2.496,2.039-4.535,4.535-4.535h0.375c1.582,2.578,4.43,4.3,7.676,4.3
						s6.094-1.729,7.676-4.3h0.375c2.496,0,4.535,2.039,4.535,4.535v9.609H44.234z"/>
					<g>
						<g>
							<g>
								<g>
									<rect id="SVGID_2_" x="53.375" y="18.242" fill="#FFFFFF" width="7.207" height="32.227"/>
								</g>
								<g>
									<g>
										<g>
											<g>
												<g>
													<g>
														<g>
															<g>
																<g>
																	<g>
																		<g>
																			<defs>
																				<rect id="SVGID_1_" x="53.375" y="18.242" width="7.207" height="32.227"/>
																			</defs>
																			<clipPath id="SVGID_3_">
																				<use xlink:href="#SVGID_1_"  overflow="visible"/>
																			</clipPath>
																			<g clip-path="url(#SVGID_3_)">
																				<path fill="#FFFFFF" d="M59.41,19.063h-8.438c-0.646,0-1.183,0.527-1.183,1.172v5.391
																					c0,0.645,0.522,1.172,1.183,1.172h8.438c0.645,0,1.172-0.527,1.172-1.172v-5.391
																					C60.582,19.59,60.055,19.063,59.41,19.063z"/>
																				<path fill="#FFFFFF" d="M56.188,42.266H47.75c-0.645,0-1.172,0.527-1.172,1.172v5.396
																					c0,0.646,0.527,1.172,1.172,1.172h8.438c0.646,0,1.172-0.521,1.172-1.172v-5.396
																					C57.359,42.793,56.832,42.266,56.188,42.266z"/>
																				<path fill="#FFFFFF" d="M58.18,30.664h-8.438c-0.645,0-1.172,0.527-1.172,1.172v5.391
																					c0,0.646,0.527,1.172,1.172,1.172h8.438c0.646,0,1.172-0.521,1.172-1.172v-5.391
																					C59.352,31.191,58.824,30.664,58.18,30.664z"/>
																			</g>
																		</g>
																	</g>
																</g>
															</g>
														</g>
													</g>
												</g>
											</g>
										</g>
									</g>
								</g>
							</g>
						</g>
					</g>
				</g>
			</g>
			<g id="Layer_3" display="inline">
				<g>
					<path fill="#FFFFFF" d="M60.664,17.539h-2.402c-0.375,2.578-2.59,4.57-5.273,4.57c-2.682,0-4.899-1.992-5.271-4.57h-25.43
						c-0.375,2.578-2.59,4.57-5.273,4.57s-4.91-1.992-5.273-4.57H9.336c-0.645,0-1.172,0.527-1.172,1.172v37.734
						c0,0.645,0.527,1.172,1.172,1.172h51.328c0.645,0,1.172-0.527,1.172-1.172V18.711C61.836,18.066,61.309,17.539,60.664,17.539z
						 M23.281,25.508c3.305,0,5.988,2.684,5.988,5.988c0,3.304-2.684,5.988-5.988,5.988c-3.304,0-5.988-2.688-5.988-5.988
						C17.293,28.192,19.977,25.508,23.281,25.508z M32.961,46.156c0,1.922-1.57,3.492-3.492,3.492H17.082
						c-1.922,0-3.492-1.57-3.492-3.492v-7.383c0-1.922,1.57-3.492,3.492-3.492h0.293c1.219,1.979,3.398,3.305,5.906,3.305
						c2.508,0,4.688-1.324,5.906-3.305h0.293c1.922,0,3.492,1.57,3.492,3.492v7.383H32.961z M56.328,45.781
						c0,0.645-0.527,1.172-1.172,1.172H36.992c-0.645,0-1.172-0.527-1.172-1.172v-0.82c0-0.645,0.527-1.172,1.172-1.172h18.164
						c0.645,0,1.172,0.527,1.172,1.172V45.781z M56.328,38.164c0,0.645-0.527,1.172-1.172,1.172H36.992
						c-0.645,0-1.172-0.527-1.172-1.172v-0.82c0-0.645,0.527-1.172,1.172-1.172h18.164c0.645,0,1.172,0.527,1.172,1.172V38.164z
						 M56.328,30.547c0,0.645-0.527,1.172-1.172,1.172H36.992c-0.645,0-1.172-0.527-1.172-1.172v-0.82
						c0-0.645,0.527-1.172,1.172-1.172h18.164c0.645,0,1.172,0.527,1.172,1.172V30.547z"/>
					<path fill="#FFFFFF" d="M17.012,12.383c-2.367,0-4.277,1.91-4.277,4.277c0,2.367,1.91,4.277,4.277,4.277
						c2.367,0,4.277-1.91,4.277-4.277C21.289,14.293,19.379,12.383,17.012,12.383z M17.012,19.414c-1.523,0-2.754-1.23-2.754-2.754
						c0-1.524,1.23-2.754,2.754-2.754c1.524,0,2.754,1.229,2.754,2.754C19.766,18.184,18.535,19.414,17.012,19.414z"/>
					<path fill="#FFFFFF" d="M53.105,12.383c-2.367,0-4.277,1.91-4.277,4.277c0,2.367,1.91,4.277,4.277,4.277
						s4.271-1.91,4.271-4.277C57.382,14.293,55.473,12.383,53.105,12.383z M53.105,19.414c-1.523,0-2.754-1.23-2.754-2.754
						c0-1.524,1.229-2.754,2.754-2.754c1.521,0,2.754,1.229,2.754,2.754C55.859,18.184,54.629,19.414,53.105,19.414z"/>
				</g>
			</g>
			<g id="Layer_4" display="inline">
				<g>
					<path fill="#FFFFFF" d="M46.883,26.41h-7.5c-0.48,0-0.879,0.398-0.879,0.879l0,0c0,0.48,0.398,0.879,0.879,0.879h7.5
						c0.48,0,0.879-0.398,0.879-0.879l0,0C47.762,26.797,47.363,26.41,46.883,26.41z"/>
					<path fill="#FFFFFF" d="M46.883,23.199h-7.5c-0.48,0-0.879,0.398-0.879,0.879s0.398,0.879,0.879,0.879h7.5
						c0.48,0,0.879-0.398,0.879-0.879S47.363,23.199,46.883,23.199z"/>
					<path fill="#FFFFFF" d="M35,8.281C20.246,8.281,8.281,20.246,8.281,35S20.246,61.719,35,61.719S61.719,49.754,61.719,35
						S49.754,8.281,35,8.281z M28.086,27.734c3.34,0,6.047,2.707,6.047,6.047c0,3.34-2.707,6.047-6.047,6.047
						s-6.047-2.707-6.047-6.047C22.039,30.441,24.746,27.734,28.086,27.734z M37.871,48.582c0,1.934-1.582,3.527-3.527,3.527H21.828
						c-1.934,0-3.527-1.582-3.527-3.527v-7.465c0-1.934,1.582-3.527,3.527-3.527h0.293c1.23,2.004,3.434,3.34,5.965,3.34
						c2.531,0,4.734-1.336,5.965-3.34h0.293c1.933,0,3.527,1.582,3.527,3.527V48.582z M52.508,26.527c0,2.098-1.488,3.82-3.305,3.82
						h-7.277l-7.02,2.777l2.098-2.789h0.047c-1.816,0-3.305-1.723-3.305-3.82v-4.84c0-2.098,1.488-3.82,3.305-3.82h12.152
						c1.816,0,3.305,1.723,3.305,3.82V26.527z"/>
					<path fill="#FFFFFF" d="M46.883,20h-7.5c-0.48,0-0.879,0.398-0.879,0.879s0.398,0.879,0.879,0.879h7.5
						c0.48,0,0.879-0.398,0.879-0.879S47.363,20,46.883,20z"/>
				</g>
			</g>
			<g id="Layer_5" display="inline">
				<path fill="#FFFFFF" d="M34.883,8.164c-14.754,0-26.719,11.965-26.719,26.719s11.965,26.719,26.719,26.719
					s26.719-11.965,26.719-26.719S49.637,8.164,34.883,8.164z M29.445,22.203c3.984,0,7.219,3.234,7.219,7.219
					c0,3.985-3.234,7.219-7.219,7.219c-3.985,0-7.219-3.229-7.219-7.219C22.226,25.437,25.461,22.203,29.445,22.203z M41.105,47.082
					c0,2.309-1.896,4.207-4.207,4.207H21.98c-2.309,0-4.207-1.887-4.207-4.207v-8.895c0-2.313,1.887-4.208,4.207-4.208h0.352
					c1.465,2.391,4.102,3.984,7.113,3.984c3.011,0,5.648-1.594,7.114-3.984h0.354c2.312,0,4.207,1.887,4.207,4.208v8.895H41.105z
					 M49.344,29.129v5.988h-2.801v-5.988h-5.988v-2.801h5.988v-5.977h2.801v5.988h5.988v2.801h-5.988V29.129z"/>
			</g>
			<g id="Layer_6" display="inline">
				<path fill="#FFFFFF" d="M35,8.281C20.246,8.281,8.281,20.246,8.281,35S20.246,61.719,35,61.719S61.719,49.754,61.719,35
					S49.754,8.281,35,8.281z M29.563,22.32c3.984,0,7.219,3.234,7.219,7.219s-3.234,7.219-7.219,7.219s-7.219-3.234-7.219-7.219
					S25.578,22.32,29.563,22.32z M41.223,47.199c0,2.309-1.887,4.207-4.207,4.207H22.098c-2.309,0-4.207-1.887-4.207-4.207v-8.895
					c0-2.313,1.887-4.208,4.207-4.208h0.352c1.465,2.39,4.102,3.984,7.113,3.984s5.648-1.596,7.113-3.984h0.352
					c2.313,0,4.207,1.886,4.207,4.208v8.895H41.223z M40.742,29.258v-2.813h14.297v2.813H40.742z"/>
			</g>
			<g id="Layer_7" display="inline">
				<path fill="#FFFFFF" d="M35,8.281C20.246,8.281,8.281,20.246,8.281,35S20.246,61.719,35,61.719S61.719,49.754,61.719,35
					S49.754,8.281,35,8.281z M29.563,22.32c3.984,0,7.219,3.234,7.219,7.219s-3.234,7.219-7.219,7.219s-7.219-3.234-7.219-7.219
					S25.578,22.32,29.563,22.32z M41.223,47.199c0,2.309-1.887,4.207-4.207,4.207H22.098c-2.309,0-4.207-1.887-4.207-4.207v-8.895
					c0-2.313,1.887-4.208,4.207-4.208h0.352c1.465,2.39,4.102,3.984,7.113,3.984s5.648-1.596,7.113-3.984h0.352
					c2.313,0,4.207,1.886,4.207,4.208v8.895H41.223z M48.219,33.031l-1.992,1.992l-1.992-1.992l-4.805-4.805l1.992-1.992
					l4.805,4.805l8.121-8.121l1.992,1.992L48.219,33.031z"/>
			</g>
			<g id="Layer_8" display="inline">
				<g>
					<path fill="#FFFFFF" d="M35,8.281C20.246,8.281,8.281,20.246,8.281,35S20.246,61.719,35,61.719S61.719,49.754,61.719,35
						S49.754,8.281,35,8.281z M44.926,17.07c3.023,0,5.473,2.449,5.473,5.473s-2.438,5.473-5.473,5.473
						c-3.023,0-5.473-2.449-5.473-5.473S41.902,17.07,44.926,17.07z M40.461,36.605c0,3.021-2.449,5.473-5.473,5.473
						s-5.473-2.449-5.473-5.473c0-3.024,2.449-5.479,5.473-5.479S40.461,33.582,40.461,36.605z M25.074,17.07
						c3.023,0,5.473,2.449,5.473,5.473s-2.449,5.473-5.473,5.473c-3.024,0-5.473-2.449-5.473-5.473S22.051,17.07,25.074,17.07z
						 M16.238,35.914v-6.738c0-1.746,1.43-3.188,3.188-3.188h0.27c1.113,1.816,3.105,3.023,5.391,3.023s4.277-1.207,5.391-3.023
						h0.27c1.746,0,3.188,1.43,3.188,3.188v1.289c-2.953,0.504-5.203,3.07-5.203,6.141c0,0.896,0.188,1.734,0.527,2.496h-9.844
						C17.668,39.102,16.238,37.672,16.238,35.914z M43.836,49.742c0,1.746-1.43,3.188-3.188,3.188H29.34
						c-1.746,0-3.188-1.43-3.188-3.188v-6.738c0-1.746,1.43-3.188,3.188-3.188h0.27c1.113,1.813,3.105,3.021,5.391,3.021
						s4.276-1.207,5.392-3.021h0.271c1.746,0,3.188,1.43,3.188,3.188v6.738H43.836z M53.762,35.914c0,1.746-1.43,3.188-3.188,3.188
						h-9.82c0.34-0.762,0.527-1.604,0.527-2.496c0-3.082-2.25-5.637-5.203-6.141v-1.289c0-1.746,1.43-3.188,3.188-3.188h0.271
						c1.111,1.816,3.104,3.023,5.391,3.023s4.277-1.207,5.393-3.023h0.271c1.746,0,3.188,1.43,3.188,3.188v6.738H53.762z"/>
				</g>
			</g>
		</g>
	</g>
</g>
<circle fill="#FFFFFF" cx="35" cy="35" r="26.5"/>
<path fill-rule="evenodd" clip-rule="evenodd" d="M44.251,50.614c-0.355,0.372-0.65,0.691-0.958,0.995
	c-0.299,0.297-0.554,0.295-0.854-0.002c-0.309-0.305-0.602-0.625-0.959-0.998c-0.32,0.342-0.603,0.65-0.896,0.949
	c-0.359,0.364-0.597,0.363-0.955,0.002c-0.29-0.291-0.568-0.592-0.925-0.967c-0.315,0.347-0.589,0.663-0.88,0.962
	c-0.358,0.367-0.598,0.366-0.958,0.009c-0.299-0.297-0.59-0.6-0.92-0.937c-0.324,0.34-0.609,0.65-0.907,0.949
	c-0.343,0.341-0.588,0.34-0.934-0.008c-0.296-0.299-0.577-0.612-0.913-0.97c-0.345,0.368-0.635,0.689-0.941,0.996
	c-0.314,0.315-0.569,0.315-0.881,0.003c-0.306-0.307-0.595-0.628-0.944-0.997c-0.333,0.355-0.615,0.668-0.911,0.966
	c-0.345,0.35-0.589,0.351-0.931,0.008c-0.296-0.298-0.581-0.607-0.907-0.95c-0.26,0.268-0.475,0.496-0.697,0.718
	c-0.66,0.663-0.734,0.661-1.407-0.013c-0.213-0.216-0.42-0.439-0.672-0.702c-0.281,0.292-0.533,0.55-0.779,0.813
	c-0.197,0.21-0.412,0.364-0.712,0.237c-0.3-0.127-0.327-0.391-0.327-0.677c0.003-8.563,0.002-17.127,0.002-25.69
	c0-2.197,0-4.395,0-6.59c0-0.57,0.161-0.732,0.731-0.732c4.957-0.001,9.915,0.001,14.871-0.005c0.283,0,0.488,0.092,0.684,0.289
	c2.131,2.139,4.265,4.273,6.405,6.403c0.208,0.207,0.293,0.424,0.292,0.717c-0.006,8.529-0.006,17.058-0.002,25.585
	c0,0.297-0.016,0.576-0.337,0.704c-0.323,0.132-0.534-0.06-0.734-0.273C44.764,51.159,44.53,50.911,44.251,50.614z M40.085,50.58
	c0.354-0.358,0.646-0.661,0.946-0.958c0.323-0.32,0.589-0.325,0.907,0c0.301,0.308,0.585,0.631,0.897,0.969
	c0.361-0.364,0.654-0.669,0.953-0.965c0.326-0.323,0.585-0.323,0.91-0.012c0.087,0.082,0.174,0.163,0.279,0.265
	c0-8.085,0-16.112,0-24.158c-0.17,0-0.311,0-0.451,0c-1.809,0-3.618,0.001-5.427,0c-0.613,0-0.77-0.158-0.77-0.776
	c-0.001-1.82,0-3.642,0-5.462c0-0.136,0-0.272,0-0.417c-4.752,0-9.456,0-14.172,0c0,10.268,0,20.518,0,30.819
	c0.101-0.092,0.167-0.149,0.232-0.211c0.405-0.393,0.631-0.393,1.034,0.017c0.28,0.283,0.547,0.579,0.854,0.903
	c0.346-0.361,0.641-0.682,0.948-0.987c0.305-0.305,0.572-0.302,0.881,0.005c0.308,0.306,0.605,0.621,0.936,0.964
	c0.326-0.333,0.616-0.64,0.915-0.938c0.34-0.338,0.599-0.343,0.932-0.008c0.297,0.299,0.582,0.609,0.905,0.95
	c0.233-0.241,0.426-0.444,0.624-0.642c0.751-0.755,0.794-0.755,1.535-0.015c0.204,0.204,0.408,0.406,0.605,0.603
	c0.064-0.045,0.086-0.056,0.103-0.07c0.267-0.266,0.532-0.532,0.8-0.795c0.371-0.368,0.624-0.374,0.984-0.007
	c0.292,0.299,0.569,0.611,0.879,0.945c0.279-0.294,0.485-0.52,0.701-0.735c0.648-0.653,0.745-0.653,1.382-0.012
	C39.63,50.076,39.839,50.315,40.085,50.58z M44.063,24.664c-1.558-1.557-3.131-3.131-4.675-4.675c0,1.42,0.004,2.921-0.005,4.421
	c0,0.243,0.124,0.256,0.31,0.256c0.881-0.005,1.76-0.002,2.64-0.002C42.939,24.664,43.546,24.664,44.063,24.664z"/>
<path fill-rule="evenodd" clip-rule="evenodd" d="M34.596,45.741c2.478,0,4.954,0,7.431,0c0.118,0,0.235-0.004,0.352,0.01
	c0.268,0.032,0.427,0.189,0.453,0.456c0.027,0.283-0.099,0.482-0.375,0.558c-0.134,0.035-0.279,0.033-0.419,0.033
	c-4.977,0.002-9.954,0.002-14.931,0c-0.129,0-0.261,0.005-0.385-0.024c-0.275-0.065-0.421-0.253-0.405-0.537
	c0.016-0.285,0.178-0.452,0.461-0.485c0.116-0.014,0.235-0.01,0.353-0.01C29.619,45.741,32.107,45.741,34.596,45.741z"/>
<path fill-rule="evenodd" clip-rule="evenodd" d="M30.417,37.945c-1.149,0-2.299,0.001-3.449,0
	c-0.429-0.002-0.648-0.178-0.654-0.516c-0.005-0.336,0.224-0.54,0.635-0.54c2.323-0.003,4.646-0.001,6.968-0.003
	c0.268,0,0.521,0.066,0.587,0.342c0.039,0.166,0.001,0.412-0.103,0.537c-0.097,0.117-0.327,0.17-0.5,0.172
	C32.74,37.952,31.579,37.945,30.417,37.945z"/>
<path fill-rule="evenodd" clip-rule="evenodd" d="M30.427,41.316c1.15,0,2.3,0,3.449,0c0.438,0.002,0.689,0.196,0.688,0.528
	c-0.002,0.332-0.254,0.528-0.691,0.528c-2.3,0.001-4.599,0.001-6.899,0c-0.437,0-0.671-0.199-0.66-0.548
	c0.01-0.334,0.233-0.507,0.664-0.507C28.127,41.316,29.278,41.316,30.427,41.316z"/>
<path fill-rule="evenodd" clip-rule="evenodd" d="M30.434,28.056c1.149,0,2.299-0.001,3.449,0c0.436,0.001,0.687,0.202,0.681,0.532
	c-0.008,0.329-0.262,0.524-0.7,0.524c-2.288,0.001-4.574,0.001-6.862,0c-0.448,0-0.685-0.185-0.689-0.524
	c-0.005-0.33,0.212-0.529,0.601-0.53C28.088,28.053,29.261,28.056,30.434,28.056z"/>
<path fill-rule="evenodd" clip-rule="evenodd" d="M30.415,33.527c-1.138,0-2.275,0.008-3.413-0.008
	c-0.185-0.002-0.411-0.056-0.543-0.17c-0.29-0.248-0.151-0.737,0.218-0.842c0.132-0.037,0.278-0.035,0.418-0.036
	c2.228-0.001,4.457,0,6.685,0c0.082,0,0.165-0.003,0.247,0.004c0.324,0.03,0.544,0.251,0.538,0.537
	c-0.006,0.287-0.229,0.508-0.56,0.512c-0.95,0.01-1.899,0.003-2.85,0.004C30.907,33.527,30.661,33.527,30.415,33.527z"/>
<path fill-rule="evenodd" clip-rule="evenodd" d="M40.403,37.945c-0.609,0-1.22,0.004-1.829-0.002
	c-0.36-0.004-0.59-0.199-0.604-0.501c-0.015-0.31,0.229-0.55,0.596-0.552c1.23-0.007,2.461-0.007,3.692,0
	c0.358,0.002,0.575,0.215,0.578,0.525c0.003,0.33-0.214,0.523-0.604,0.527C41.622,37.947,41.013,37.945,40.403,37.945z"/>
<path fill-rule="evenodd" clip-rule="evenodd" d="M40.394,41.316c0.609,0,1.22-0.003,1.829,0.002
	c0.392,0.003,0.611,0.194,0.613,0.521c0.003,0.324-0.221,0.532-0.604,0.534c-1.22,0.003-2.439,0.005-3.658-0.002
	c-0.37-0.001-0.612-0.229-0.604-0.54c0.009-0.302,0.24-0.509,0.596-0.512C39.175,41.313,39.784,41.316,40.394,41.316z"/>
<path fill-rule="evenodd" clip-rule="evenodd" d="M40.426,29.113c-0.585,0-1.172,0.001-1.758-0.001
	c-0.438-0.002-0.691-0.194-0.698-0.523c-0.008-0.332,0.243-0.533,0.678-0.534c1.172-0.001,2.345-0.001,3.518,0
	c0.447,0.001,0.676,0.184,0.671,0.531c-0.004,0.341-0.239,0.524-0.687,0.526C41.575,29.115,41,29.113,40.426,29.113z"/>
<path fill-rule="evenodd" clip-rule="evenodd" d="M40.388,33.526c-0.597,0-1.195,0.005-1.792-0.001
	c-0.384-0.004-0.621-0.209-0.626-0.518s0.235-0.533,0.611-0.534c1.219-0.006,2.438-0.007,3.655,0
	c0.392,0.002,0.605,0.208,0.599,0.538c-0.005,0.327-0.216,0.51-0.619,0.514C41.606,33.532,40.998,33.526,40.388,33.526z"/>
</svg>
